#N canvas 636 38 711 730 10;
#X floatatom 58 103 0 40 16000 0 - - - 0;
#X msg 508 575 \; pd dsp 1;
#X floatatom 58 591 0 0 0 0 - - - 0;
#X msg 225 317 disconnect;
#X msg 253 419 print;
#X msg 574 575 \; pd dsp 0;
#X obj 508 549 loadbang;
#X floatatom 139 569 10 0 0 0 - - - 0;
#X text 171 221 connect <host> <mountpoint> <port>;
#X text 312 112 get latest version at;
#X text 208 569 ogg pages;
#X text 87 591 connection state;
#X text 418 404 channels: 1 or 2 (default);
#X text 250 371 vbr <samplerate> <channels> <quality>;
#X msg 140 124 passwd letmein;
#X obj 58 130 osc~ 440;
#X text 370 393 quality settings: 0 - 1 (low - hi);
#X text 267 479 possible tags: TITLE \, ARTIST \, PERFORMER \, DESCRIPTION \,;
#X text 356 492 GENRE \, LOCATION \, COPYRIGHT \, CONTACT \, DATE;
#X msg 203 261 connect 141.53.196.149 puredata.ogg 8000;
#X msg 173 239 connect localhost puredata.ogg 8000;
#X msg 210 287 connect 141.53.3.18 musicforfilms.ogg 8100;
#X text 313 101 written by Olaf Matthes <olaf.matthes@gmx.de>;
#X text 292 420 print current settings to console window;
#X text 265 440 comment: <TAG> <content>;
#X msg 265 457 ARTIST your_name;
#X text 268 511 '_' (underline) or '=' (equal sign) will get replaced with spaces!;
#X text 280 560 default is 2 channels and 512k;
#X text 281 572 bytes buffer size;
#X text 159 542 creation arguments: oggcast~ <channels> <buffer size>;
#X msg 235 352 vorbis 44100 2 144 128 96;
#X obj 73 177 noise~;
#X text 59 73 oggcast~ 0.2f - send Ogg Vorbis stream to IceCast2 or JRoar;
#X text 314 126 http://www.akustische-kunst.org/puredata/;
#X text 235 335 vorbis <samplerate> <channels> <max.br> <nom.br> <min.br>;
#X msg 250 387 vbr 44100 2 0.6;
#X msg 157 162 server 0;
#X msg 169 187 server 1;
#X text 215 161 choose JRoar or old Icecast2 as server type (default);
#X text 228 188 choose new Icecast2 (final) as server type;
#N canvas 493 108 494 344 META 0;
#X text 12 195 HELP_PATCH_AUTHORS "pd meta" information added by Jonathan Wilkes for Pd version 0.42.;
#X text 12 175 AUTHOR Olaf Matthes;
#X text 12 25 LICENSE LGPL;
#X text 12 5 KEYWORDS signal soundfile network;
#X text 12 45 DESCRIPTION send Ogg Vorbis stream to IceCast2 or JRoar;
#X text 12 65 INLET_0 signal passwd server connect disconnect vorbis vbr print TITLE ARTIST PERFORMER DESCRIPTION GENRE LOCATION COPYRIGHT CONTACT DATE;
#X text 12 115 INLET_1 signal;
#X text 12 135 OUTLET_0 float;
#X text 12 155 OUTLET_1 float;
#X restore 608 629 pd META;
#X obj 58 542 oggcast~ 2 512;
#X msg 15 34 passwd hackme \, connect localhost stream 8000;
#X connect 0 0 15 0;
#X connect 3 0 41 0;
#X connect 4 0 41 0;
#X connect 6 0 1 0;
#X connect 14 0 41 0;
#X connect 15 0 41 0;
#X connect 19 0 41 0;
#X connect 20 0 41 0;
#X connect 21 0 41 0;
#X connect 25 0 41 0;
#X connect 30 0 41 0;
#X connect 31 0 41 1;
#X connect 35 0 41 0;
#X connect 36 0 41 0;
#X connect 37 0 41 0;
#X connect 41 0 2 0;
#X connect 41 1 7 0;
#X connect 42 0 41 0;
